<svg xmlns="http://www.w3.org/2000/svg" width="800" height="800" viewBox="0 0 800 800">
  <defs>
    <linearGradient id="bg" x1="0" y1="0" x2="1" y2="1">
      <stop offset="0%" stop-color="#0f172a" />
      <stop offset="100%" stop-color="#1e293b" />
    </linearGradient>
    <radialGradient id="glow" cx="0.5" cy="0.4" r="0.5">
      <stop offset="0%" stop-color="#22c55e" stop-opacity="0.7" />
      <stop offset="100%" stop-color="#0f172a" stop-opacity="0" />
    </radialGradient>
  </defs>
  <rect width="800" height="800" fill="url(#bg)" />
  <rect width="800" height="800" fill="url(#glow)" />
  <circle cx="560" cy="210" r="110" fill="#22c55e" fill-opacity="0.15" />
  <circle cx="260" cy="520" r="150" fill="#16a34a" fill-opacity="0.15" />
  <path d="M400 160c40 60 60 120 60 180 0 90-60 170-60 240 0-70-60-150-60-240 0-60 20-120 60-180z" fill="#22c55e" fill-opacity="0.4" />
  <path d="M400 220c-90 20-150 70-170 140 80-10 140-30 170-140z" fill="#4ade80" fill-opacity="0.35" />
  <path d="M400 220c90 20 150 70 170 140-80-10-140-30-170-140z" fill="#4ade80" fill-opacity="0.35" />
  <path d="M400 320c-70 40-110 90-120 160 70-10 120-40 120-160z" fill="#22c55e" fill-opacity="0.35" />
  <path d="M400 320c70 40 110 90 120 160-70-10-120-40-120-160z" fill="#22c55e" fill-opacity="0.35" />
  <circle cx="400" cy="360" r="26" fill="#facc15" fill-opacity="0.7" />
</svg>
