<svg xmlns="http://www.w3.org/2000/svg" width="800" height="800" viewBox="0 0 800 800">
  <defs>
    <linearGradient id="bg" x1="0" y1="1" x2="1" y2="0">
      <stop offset="0%" stop-color="#0b1120" />
      <stop offset="100%" stop-color="#111827" />
    </linearGradient>
    <linearGradient id="leaf" x1="0" y1="0" x2="1" y2="1">
      <stop offset="0%" stop-color="#10b981" />
      <stop offset="100%" stop-color="#22c55e" />
    </linearGradient>
  </defs>
  <rect width="800" height="800" fill="url(#bg)" />
  <circle cx="260" cy="220" r="140" fill="#14b8a6" fill-opacity="0.15" />
  <circle cx="560" cy="560" r="160" fill="#22c55e" fill-opacity="0.1" />
  <path d="M400 140c20 40 40 90 40 150 0 80-40 150-40 220 0-70-40-140-40-220 0-60 20-110 40-150z" fill="url(#leaf)" fill-opacity="0.5" />
  <path d="M400 220c-120 30-170 90-190 170 90-10 160-50 190-170z" fill="#34d399" fill-opacity="0.4" />
  <path d="M400 220c120 30 170 90 190 170-90-10-160-50-190-170z" fill="#34d399" fill-opacity="0.4" />
  <path d="M400 320c-90 60-130 120-140 200 70-20 120-70 140-200z" fill="#22c55e" fill-opacity="0.35" />
  <path d="M400 320c90 60 130 120 140 200-70-20-120-70-140-200z" fill="#22c55e" fill-opacity="0.35" />
  <circle cx="400" cy="330" r="22" fill="#fbbf24" fill-opacity="0.8" />
</svg>
